<svg xmlns="http://www.w3.org/2000/svg" width="1000" height="520" viewBox="0 0 1000 520">
<rect width="100%" height="100%" fill="#ffffff"/>
<text x="500.0" y="34" font-family="Arial, sans-serif" font-size="21" font-weight="700" text-anchor="middle" fill="#111">Synthetic Predictive Performance</text>
<text x="500.0" y="58" font-family="Arial, sans-serif" font-size="12" font-weight="400" text-anchor="middle" fill="#444">Best validation-MSE configurations; lower log10(MSE) is better and higher R2 is better.</text>
<text x="285.0" y="77" font-family="Arial, sans-serif" font-size="15" font-weight="700" text-anchor="middle" fill="#111">Mean log10(test MSE)</text>
<line x1="85" y1="405" x2="485" y2="405" stroke="#333"/>
<line x1="85" y1="95" x2="85" y2="405" stroke="#333"/>
<line x1="81" y1="405.0" x2="485" y2="405.0" stroke="#e5e5e5"/>
<text x="75" y="409.0" font-family="Arial, sans-serif" font-size="10" font-weight="400" text-anchor="end" fill="#555">-8.0</text>
<line x1="81" y1="343.0" x2="485" y2="343.0" stroke="#e5e5e5"/>
<text x="75" y="347.0" font-family="Arial, sans-serif" font-size="10" font-weight="400" text-anchor="end" fill="#555">-6.1</text>
<line x1="81" y1="281.0" x2="485" y2="281.0" stroke="#e5e5e5"/>
<text x="75" y="285.0" font-family="Arial, sans-serif" font-size="10" font-weight="400" text-anchor="end" fill="#555">-4.2</text>
<line x1="81" y1="219.0" x2="485" y2="219.0" stroke="#e5e5e5"/>
<text x="75" y="223.0" font-family="Arial, sans-serif" font-size="10" font-weight="400" text-anchor="end" fill="#555">-2.3</text>
<line x1="81" y1="157.0" x2="485" y2="157.0" stroke="#e5e5e5"/>
<text x="75" y="161.00000000000003" font-family="Arial, sans-serif" font-size="10" font-weight="400" text-anchor="end" fill="#555">-0.4</text>
<line x1="81" y1="95.0" x2="485" y2="95.0" stroke="#e5e5e5"/>
<text x="75" y="99.0" font-family="Arial, sans-serif" font-size="10" font-weight="400" text-anchor="end" fill="#555">1.5</text>
<text x="151.66666666666669" y="433" font-family="Arial, sans-serif" font-size="12" font-weight="400" text-anchor="middle" fill="#111">Bouncing</text>
<rect x="101.7" y="428.1" width="30.3" height="-23.1" fill="#4477aa"/>
<rect x="135.0" y="459.4" width="30.3" height="-54.4" fill="#228833"/>
<rect x="168.3" y="210.6" width="30.3" height="194.4" fill="#cc6677"/>
<text x="285.0" y="433" font-family="Arial, sans-serif" font-size="12" font-weight="400" text-anchor="middle" fill="#111">Rolling</text>
<rect x="235.0" y="666.1" width="30.3" height="-261.1" fill="#4477aa"/>
<rect x="268.3" y="455.0" width="30.3" height="-50.0" fill="#228833"/>
<rect x="301.7" y="365.7" width="30.3" height="39.3" fill="#cc6677"/>
<text x="418.33333333333337" y="433" font-family="Arial, sans-serif" font-size="12" font-weight="400" text-anchor="middle" fill="#111">Flight</text>
<rect x="368.3" y="283.0" width="30.3" height="122.0" fill="#4477aa"/>
<rect x="401.7" y="218.4" width="30.3" height="186.6" fill="#228833"/>
<rect x="435.0" y="205.1" width="30.3" height="199.9" fill="#cc6677"/>
<rect x="105" y="457" width="14" height="14" fill="#4477aa"/>
<text x="125" y="469" font-family="Arial, sans-serif" font-size="11" font-weight="400" text-anchor="start" fill="#111">SINDy</text>
<rect x="230" y="457" width="14" height="14" fill="#228833"/>
<text x="250" y="469" font-family="Arial, sans-serif" font-size="11" font-weight="400" text-anchor="start" fill="#111">Hybrid SINDy</text>
<rect x="355" y="457" width="14" height="14" fill="#cc6677"/>
<text x="375" y="469" font-family="Arial, sans-serif" font-size="11" font-weight="400" text-anchor="start" fill="#111">Lagrangian SINDy</text>
<text x="785.0" y="77" font-family="Arial, sans-serif" font-size="15" font-weight="700" text-anchor="middle" fill="#111">Mean test R2</text>
<line x1="585" y1="405" x2="985" y2="405" stroke="#333"/>
<line x1="585" y1="95" x2="585" y2="405" stroke="#333"/>
<line x1="581" y1="405.0" x2="985" y2="405.0" stroke="#e5e5e5"/>
<text x="575" y="409.0" font-family="Arial, sans-serif" font-size="10" font-weight="400" text-anchor="end" fill="#555">-1.0</text>
<line x1="581" y1="343.0" x2="985" y2="343.0" stroke="#e5e5e5"/>
<text x="575" y="347.0" font-family="Arial, sans-serif" font-size="10" font-weight="400" text-anchor="end" fill="#555">-0.6</text>
<line x1="581" y1="281.0" x2="985" y2="281.0" stroke="#e5e5e5"/>
<text x="575" y="285.0" font-family="Arial, sans-serif" font-size="10" font-weight="400" text-anchor="end" fill="#555">-0.2</text>
<line x1="581" y1="219.0" x2="985" y2="219.0" stroke="#e5e5e5"/>
<text x="575" y="222.99999999999997" font-family="Arial, sans-serif" font-size="10" font-weight="400" text-anchor="end" fill="#555">0.2</text>
<line x1="581" y1="157.0" x2="985" y2="157.0" stroke="#e5e5e5"/>
<text x="575" y="161.0" font-family="Arial, sans-serif" font-size="10" font-weight="400" text-anchor="end" fill="#555">0.6</text>
<line x1="581" y1="95.0" x2="985" y2="95.0" stroke="#e5e5e5"/>
<text x="575" y="99.0" font-family="Arial, sans-serif" font-size="10" font-weight="400" text-anchor="end" fill="#555">1.0</text>
<text x="651.6666666666666" y="433" font-family="Arial, sans-serif" font-size="12" font-weight="400" text-anchor="middle" fill="#111">Bouncing</text>
<rect x="601.7" y="147.9" width="30.3" height="257.1" fill="#4477aa"/>
<rect x="635.0" y="95.0" width="30.3" height="310.0" fill="#228833"/>
<rect x="668.3" y="221.0" width="30.3" height="184.0" fill="#cc6677"/>
<text x="785.0" y="433" font-family="Arial, sans-serif" font-size="12" font-weight="400" text-anchor="middle" fill="#111">Rolling</text>
<rect x="735.0" y="146.7" width="30.3" height="258.3" fill="#4477aa"/>
<rect x="768.3" y="146.7" width="30.3" height="258.3" fill="#228833"/>
<rect x="801.7" y="148.6" width="30.3" height="256.4" fill="#cc6677"/>
<text x="918.3333333333334" y="433" font-family="Arial, sans-serif" font-size="12" font-weight="400" text-anchor="middle" fill="#111">Flight</text>
<rect x="868.3" y="125.5" width="30.3" height="279.5" fill="#4477aa"/>
<rect x="901.7" y="117.3" width="30.3" height="287.7" fill="#228833"/>
<rect x="935.0" y="121.9" width="30.3" height="283.1" fill="#cc6677"/>
<rect x="605" y="457" width="14" height="14" fill="#4477aa"/>
<text x="625" y="469" font-family="Arial, sans-serif" font-size="11" font-weight="400" text-anchor="start" fill="#111">SINDy</text>
<rect x="730" y="457" width="14" height="14" fill="#228833"/>
<text x="750" y="469" font-family="Arial, sans-serif" font-size="11" font-weight="400" text-anchor="start" fill="#111">Hybrid SINDy</text>
<rect x="855" y="457" width="14" height="14" fill="#cc6677"/>
<text x="875" y="469" font-family="Arial, sans-serif" font-size="11" font-weight="400" text-anchor="start" fill="#111">Lagrangian SINDy</text>
</svg>